<mxfile host="app.diagrams.net" modified="2023-07-06T08:02:53.145Z" agent="Mozilla/5.0 (Windows NT 10.0; Win64; x64) AppleWebKit/537.36 (KHTML, like Gecko) Chrome/114.0.0.0 Safari/537.36" etag="qrR3KXp5wf0rry9LKg0l" version="21.3.6" type="github">
  <diagram name="Pagina-1" id="I4tZ05rGtTGTqo60egdI">
    <mxGraphModel dx="1434" dy="788" grid="1" gridSize="10" guides="1" tooltips="1" connect="1" arrows="1" fold="1" page="1" pageScale="1" pageWidth="827" pageHeight="1169" math="0" shadow="0">
      <root>
        <mxCell id="0" />
        <mxCell id="1" parent="0" />
        <mxCell id="9s9rQdnHP5pSKX04gDDb-5" value="" style="edgeStyle=orthogonalEdgeStyle;rounded=0;orthogonalLoop=1;jettySize=auto;html=1;" edge="1" parent="1" source="9s9rQdnHP5pSKX04gDDb-3" target="9s9rQdnHP5pSKX04gDDb-4">
          <mxGeometry relative="1" as="geometry" />
        </mxCell>
        <mxCell id="9s9rQdnHP5pSKX04gDDb-3" value="ENTRA UN LOTTO DI DIMENSIONE VARIABILE IN SQS" style="strokeWidth=2;html=1;shape=mxgraph.flowchart.start_2;whiteSpace=wrap;" vertex="1" parent="1">
          <mxGeometry x="390" y="70" width="100" height="100" as="geometry" />
        </mxCell>
        <mxCell id="9s9rQdnHP5pSKX04gDDb-7" style="edgeStyle=orthogonalEdgeStyle;rounded=0;orthogonalLoop=1;jettySize=auto;html=1;" edge="1" parent="1" source="9s9rQdnHP5pSKX04gDDb-4" target="9s9rQdnHP5pSKX04gDDb-6">
          <mxGeometry relative="1" as="geometry" />
        </mxCell>
        <mxCell id="9s9rQdnHP5pSKX04gDDb-4" value="attesa 300 sec" style="rounded=1;whiteSpace=wrap;html=1;strokeWidth=2;" vertex="1" parent="1">
          <mxGeometry x="380" y="220" width="120" height="60" as="geometry" />
        </mxCell>
        <mxCell id="9s9rQdnHP5pSKX04gDDb-6" value="" style="verticalLabelPosition=bottom;verticalAlign=top;html=1;shape=mxgraph.flowchart.parallel_mode;pointerEvents=1" vertex="1" parent="1">
          <mxGeometry x="392.5" y="360" width="95" height="40" as="geometry" />
        </mxCell>
        <mxCell id="9s9rQdnHP5pSKX04gDDb-8" value="PARALLELL LAMDA WITH LONG POLLING" style="text;html=1;align=center;verticalAlign=middle;resizable=0;points=[];autosize=1;strokeColor=none;fillColor=none;" vertex="1" parent="1">
          <mxGeometry x="515" y="365" width="260" height="30" as="geometry" />
        </mxCell>
        <mxCell id="9s9rQdnHP5pSKX04gDDb-25" style="edgeStyle=orthogonalEdgeStyle;rounded=0;orthogonalLoop=1;jettySize=auto;html=1;" edge="1" parent="1" source="9s9rQdnHP5pSKX04gDDb-9" target="9s9rQdnHP5pSKX04gDDb-24">
          <mxGeometry relative="1" as="geometry" />
        </mxCell>
        <mxCell id="9s9rQdnHP5pSKX04gDDb-9" value="Timestream orderred data" style="strokeWidth=2;html=1;shape=mxgraph.flowchart.database;whiteSpace=wrap;" vertex="1" parent="1">
          <mxGeometry x="197.5" y="1220" width="90" height="100" as="geometry" />
        </mxCell>
        <mxCell id="9s9rQdnHP5pSKX04gDDb-17" value="" style="edgeStyle=orthogonalEdgeStyle;rounded=0;orthogonalLoop=1;jettySize=auto;html=1;" edge="1" parent="1" source="9s9rQdnHP5pSKX04gDDb-10" target="9s9rQdnHP5pSKX04gDDb-16">
          <mxGeometry relative="1" as="geometry" />
        </mxCell>
        <mxCell id="9s9rQdnHP5pSKX04gDDb-10" value="REDIS EPHIMERAL DATA" style="shape=parallelogram;html=1;strokeWidth=2;perimeter=parallelogramPerimeter;whiteSpace=wrap;rounded=1;arcSize=12;size=0.23;fontSize=10;" vertex="1" parent="1">
          <mxGeometry x="392.5" y="580" width="100" height="60" as="geometry" />
        </mxCell>
        <mxCell id="9s9rQdnHP5pSKX04gDDb-13" value="" style="edgeStyle=orthogonalEdgeStyle;rounded=0;orthogonalLoop=1;jettySize=auto;html=1;fontSize=10;" edge="1" parent="1" source="9s9rQdnHP5pSKX04gDDb-11" target="9s9rQdnHP5pSKX04gDDb-10">
          <mxGeometry relative="1" as="geometry" />
        </mxCell>
        <mxCell id="9s9rQdnHP5pSKX04gDDb-11" value="MULTIPLE LAMBDA START FOR A BATCH RECORD" style="strokeWidth=2;html=1;shape=mxgraph.flowchart.start_2;whiteSpace=wrap;fontSize=10;" vertex="1" parent="1">
          <mxGeometry x="392.5" y="420" width="100" height="100" as="geometry" />
        </mxCell>
        <mxCell id="9s9rQdnHP5pSKX04gDDb-20" value="no" style="edgeStyle=orthogonalEdgeStyle;rounded=0;orthogonalLoop=1;jettySize=auto;html=1;" edge="1" parent="1" source="9s9rQdnHP5pSKX04gDDb-12" target="9s9rQdnHP5pSKX04gDDb-19">
          <mxGeometry relative="1" as="geometry" />
        </mxCell>
        <mxCell id="9s9rQdnHP5pSKX04gDDb-23" value="" style="edgeStyle=orthogonalEdgeStyle;rounded=0;orthogonalLoop=1;jettySize=auto;html=1;" edge="1" parent="1" source="9s9rQdnHP5pSKX04gDDb-12" target="9s9rQdnHP5pSKX04gDDb-22">
          <mxGeometry relative="1" as="geometry" />
        </mxCell>
        <mxCell id="9s9rQdnHP5pSKX04gDDb-12" value="IS DEVICE LOCKED FOR ANALISYS INTO OTHER LAMBDA" style="strokeWidth=2;html=1;shape=mxgraph.flowchart.decision;whiteSpace=wrap;fontSize=10;" vertex="1" parent="1">
          <mxGeometry x="392.5" y="860" width="100" height="100" as="geometry" />
        </mxCell>
        <mxCell id="9s9rQdnHP5pSKX04gDDb-18" value="" style="edgeStyle=orthogonalEdgeStyle;rounded=0;orthogonalLoop=1;jettySize=auto;html=1;" edge="1" parent="1" source="9s9rQdnHP5pSKX04gDDb-16" target="9s9rQdnHP5pSKX04gDDb-12">
          <mxGeometry relative="1" as="geometry" />
        </mxCell>
        <mxCell id="9s9rQdnHP5pSKX04gDDb-16" value="GELL ALL DEVICES ID FROM BATCH OF RECORDS" style="shape=parallelogram;html=1;strokeWidth=2;perimeter=parallelogramPerimeter;whiteSpace=wrap;rounded=1;arcSize=12;size=0.23;" vertex="1" parent="1">
          <mxGeometry x="392.5" y="690" width="100" height="60" as="geometry" />
        </mxCell>
        <mxCell id="9s9rQdnHP5pSKX04gDDb-21" style="edgeStyle=orthogonalEdgeStyle;rounded=0;orthogonalLoop=1;jettySize=auto;html=1;" edge="1" parent="1" source="9s9rQdnHP5pSKX04gDDb-19">
          <mxGeometry relative="1" as="geometry">
            <mxPoint x="440" y="790" as="targetPoint" />
            <Array as="points">
              <mxPoint x="623" y="790" />
            </Array>
          </mxGeometry>
        </mxCell>
        <mxCell id="9s9rQdnHP5pSKX04gDDb-19" value="LOCK DEVICE ID" style="whiteSpace=wrap;html=1;fontSize=10;strokeWidth=2;" vertex="1" parent="1">
          <mxGeometry x="562.5" y="880" width="120" height="60" as="geometry" />
        </mxCell>
        <mxCell id="9s9rQdnHP5pSKX04gDDb-29" value="" style="edgeStyle=orthogonalEdgeStyle;rounded=0;orthogonalLoop=1;jettySize=auto;html=1;" edge="1" parent="1" source="9s9rQdnHP5pSKX04gDDb-22" target="9s9rQdnHP5pSKX04gDDb-28">
          <mxGeometry relative="1" as="geometry" />
        </mxCell>
        <mxCell id="9s9rQdnHP5pSKX04gDDb-22" value="FOR EACH DEVICE WRITE ON REDIS THE START TIMESTAMP OF ANALSISYS IN REDIS KEY" style="whiteSpace=wrap;html=1;fontSize=10;strokeWidth=2;" vertex="1" parent="1">
          <mxGeometry x="382.5" y="1010" width="120" height="60" as="geometry" />
        </mxCell>
        <mxCell id="9s9rQdnHP5pSKX04gDDb-32" value="" style="edgeStyle=orthogonalEdgeStyle;rounded=0;orthogonalLoop=1;jettySize=auto;html=1;" edge="1" parent="1" source="9s9rQdnHP5pSKX04gDDb-24" target="9s9rQdnHP5pSKX04gDDb-31">
          <mxGeometry relative="1" as="geometry" />
        </mxCell>
        <mxCell id="9s9rQdnHP5pSKX04gDDb-24" value="GET&amp;nbsp; ALL&amp;nbsp; DATA FROM TIMESTRAM" style="shape=parallelogram;html=1;strokeWidth=2;perimeter=parallelogramPerimeter;whiteSpace=wrap;rounded=1;arcSize=12;size=0.23;" vertex="1" parent="1">
          <mxGeometry x="392.5" y="1240" width="100" height="60" as="geometry" />
        </mxCell>
        <mxCell id="9s9rQdnHP5pSKX04gDDb-30" value="" style="edgeStyle=orthogonalEdgeStyle;rounded=0;orthogonalLoop=1;jettySize=auto;html=1;" edge="1" parent="1" source="9s9rQdnHP5pSKX04gDDb-28" target="9s9rQdnHP5pSKX04gDDb-24">
          <mxGeometry relative="1" as="geometry" />
        </mxCell>
        <mxCell id="9s9rQdnHP5pSKX04gDDb-28" value="COMPOSE A SINGLE QUERY FOR DEVICE TI GET THE RIGHT DATAFOR EACH DEVICE" style="rounded=1;whiteSpace=wrap;html=1;fontSize=10;strokeWidth=2;" vertex="1" parent="1">
          <mxGeometry x="382.5" y="1140" width="120" height="60" as="geometry" />
        </mxCell>
        <mxCell id="9s9rQdnHP5pSKX04gDDb-33" value="no" style="edgeStyle=orthogonalEdgeStyle;rounded=0;orthogonalLoop=1;jettySize=auto;html=1;entryX=1;entryY=0.5;entryDx=0;entryDy=0;" edge="1" parent="1" source="9s9rQdnHP5pSKX04gDDb-31" target="9s9rQdnHP5pSKX04gDDb-28">
          <mxGeometry relative="1" as="geometry">
            <Array as="points">
              <mxPoint x="660" y="1425" />
              <mxPoint x="660" y="1170" />
            </Array>
          </mxGeometry>
        </mxCell>
        <mxCell id="9s9rQdnHP5pSKX04gDDb-31" value="IS THE BUNCH OF DATRA ORDERED AND READY FOR BPM ANALISYS" style="rhombus;whiteSpace=wrap;html=1;strokeWidth=2;rounded=1;arcSize=12;" vertex="1" parent="1">
          <mxGeometry x="376.25" y="1370" width="132.5" height="110" as="geometry" />
        </mxCell>
      </root>
    </mxGraphModel>
  </diagram>
</mxfile>
